<?xml version="1.0" encoding="utf-8"?>
<!-- Generator: Adobe Illustrator 21.1.0, SVG Export Plug-In . SVG Version: 6.00 Build 0)  -->
<svg version="1.1" id="Capa_1" xmlns="http://www.w3.org/2000/svg" xmlns:xlink="http://www.w3.org/1999/xlink" x="0px" y="0px"
	 viewBox="0 0 492.7 492.7" style="enable-background:new 0 0 492.7 492.7;" xml:space="preserve">
<style type="text/css">
	.st0{fill:#FFFFFF;}
</style>
<g>
	<g>
		<path class="st0" d="M415.2,348c17.9-29.7,28.4-64.4,28.4-101.6c0-108.8-88.2-197.1-197.1-197.1S49.4,137.5,49.4,246.4
			s88.2,197.1,197.1,197.1c42.7,0,82.2-13.7,114.5-36.9l66,14.9L415.2,348z"/>
		<path d="M246.5,455.9c-56,0-108.6-21.8-148.1-61.4C58.8,355,37,302.3,37,246.4S58.8,137.8,98.4,98.3s92.2-61.4,148.1-61.4
			s108.6,21.8,148.1,61.4S456,190.4,456,246.4c0,36.4-9.6,72.3-27.9,104l14,87.3l-78.6-17.8C328.8,443.5,288.4,455.9,246.5,455.9z
			 M246.5,61.7c-101.8,0-184.7,82.8-184.7,184.7s82.8,184.7,184.7,184.7c38.6,0,75.7-11.9,107.2-34.5l4.5-3.2l53.5,12.1l-9.6-59.9
			l2.4-3.9c17.4-28.9,26.6-61.8,26.6-95.2C431.2,144.6,348.3,61.7,246.5,61.7z"/>
	</g>
</g>
</svg>
