<?xml version="1.0" encoding="utf-8"?>
<!-- Generator: Adobe Illustrator 21.1.0, SVG Export Plug-In . SVG Version: 6.00 Build 0)  -->
<svg version="1.1" id="Layer_1" xmlns="http://www.w3.org/2000/svg" xmlns:xlink="http://www.w3.org/1999/xlink" x="0px" y="0px"
	 viewBox="0 0 2500 2500" style="enable-background:new 0 0 2500 2500;" xml:space="preserve">
<path d="M1246.8,1419.7c-361.1,0-654.9-293.8-654.9-654.9s293.8-654.9,654.9-654.9s654.9,293.8,654.9,654.9
	S1607.9,1419.7,1246.8,1419.7z M1246.8,186.7c-318.7,0-578,259.3-578,578s259.3,578,578,578s578-259.3,578-578
	S1565.5,186.7,1246.8,186.7z"/>
<path d="M2498.5,2388.9h-76.8v-356.2c0-206.1-167.7-373.8-373.8-373.8H451.6c-206.1,0-373.8,167.7-373.8,373.8v356.2H1v-356.2
	C1,1784.2,203.1,1582,451.6,1582h1596.2c248.5,0,450.7,202.2,450.7,450.7V2388.9z"/>
</svg>
