<?xml version="1.0" encoding="utf-8"?>
<!-- Generator: Adobe Illustrator 21.1.0, SVG Export Plug-In . SVG Version: 6.00 Build 0)  -->
<svg version="1.1" id="Capa_1" xmlns="http://www.w3.org/2000/svg" xmlns:xlink="http://www.w3.org/1999/xlink" x="0px" y="0px"
	 viewBox="0 0 492.7 492.7" style="enable-background:new 0 0 492.7 492.7;" xml:space="preserve">
<g>
	<g id="Icons_18_">
		<path d="M246.3,459.9c-6.3,0-12.4-2.5-16.8-7l-182-182.1C17.9,245,1,207.8,1,168.7C1,93.8,61.9,32.9,136.8,32.9
			c43.8,0,84,20.6,109.6,55.7c25.6-35.1,65.7-55.7,109.5-55.7c74.9,0,135.8,60.9,135.8,135.8c0,39.1-16.9,76.3-46.5,102.1
			L263.1,452.9C258.7,457.4,252.6,459.9,246.3,459.9z M136.8,47.4c-66.9,0-121.3,54.4-121.3,121.3c0,35,15.2,68.3,41.7,91.4l0.4,0.3
			l182.2,182.3c1.7,1.7,4.1,2.7,6.6,2.7c2.5,0,4.8-1,6.6-2.7l182.5-182.5l0.2-0.2c26.5-23.1,41.7-56.4,41.7-91.4
			c0-66.9-54.4-121.3-121.3-121.3c-42.4,0-81,21.7-103.3,58l-6.2,10l-6.2-10C217.9,69.1,179.2,47.4,136.8,47.4z"/>
	</g>
</g>
</svg>
